<?xml version="1.0" encoding="utf-8"?><!-- Uploaded to: SVG Repo, www.svgrepo.com, Generator: SVG Repo Mixer Tools -->
<svg width="800px" height="800px" viewBox="0 0 24 24" fill="none" xmlns="http://www.w3.org/2000/svg">
<path fill-rule="evenodd" clip-rule="evenodd" d="M6.02508 7.04804C4.21505 9.76117 4.57364 13.4171 6.8743 15.706L9.4249 17.714L11.6996 20L13.9743 17.714L16.5249 15.706C18.8255 13.4171 19.1841 9.76117 17.3741 7.04804C16.618 5.91512 15.5527 5.03638 14.3116 4.52204C12.6364 3.82599 10.7628 3.82599 9.08755 4.52204C7.84648 5.03638 6.78111 5.91512 6.02508 7.04804Z" stroke="#000000" stroke-width="1.5" stroke-linecap="round" stroke-linejoin="round"/>
<path fill-rule="evenodd" clip-rule="evenodd" d="M11.6996 13.1431C12.9243 13.1172 13.8991 12.0826 13.8824 10.8264C13.8657 9.57013 12.8637 8.56315 11.6388 8.57159C10.4139 8.58002 9.42519 9.60071 9.42493 10.8571C9.43778 12.1325 10.4561 13.1558 11.6996 13.1431Z" stroke="#000000" stroke-width="1.5" stroke-linecap="round" stroke-linejoin="round"/>
</svg>