<svg width="1292" height="1293" xmlns="http://www.w3.org/2000/svg" xmlns:xlink="http://www.w3.org/1999/xlink" xml:space="preserve" overflow="hidden"><g transform="translate(-2044 -444)"><g><g><g><g><path d="M1283.85 277.411C1278.5 250.379 1266.44 224.83 1248.84 203.351 1245.27 198.841 1241.53 194.83 1237.44 190.76 1206.14 159.289 1162.59 141.238 1117.97 141.238L169.029 141.238C123.906 141.238 81.4681 158.834 49.5319 190.778 45.4899 194.81 41.742 198.862 38.0319 203.514 20.5116 224.903 8.50375 250.417 3.28286 277.487 1.10099 288.117 0 299.132 0 310.275L0 976.742C0 999.929 4.71062 1022.51 14.0489 1043.97 22.1304 1063.03 34.3921 1081.1 49.5219 1096.22 53.3326 1100.02 57.1182 1103.52 61.1601 1106.93 91.4097 1131.98 129.713 1145.76 169.029 1145.76L1117.97 1145.76C1157.54 1145.76 1195.8 1131.93 1225.97 1106.65 1230 1103.39 1233.74 1099.96 1237.48 1096.22 1252.1 1081.62 1263.73 1064.83 1272.08 1046.32L1273.18 1043.68C1282.35 1022.62 1287 1000.12 1287 976.745L1287 310.275C1287 299.278 1285.94 288.19 1283.85 277.411ZM87.5336 249.115C89.9241 245.616 92.9757 242.024 96.8694 238.1 116.197 218.782 141.829 208.152 169.027 208.152L1117.96 208.152C1145.4 208.152 1171.04 218.8 1190.15 238.138 1193.45 241.473 1196.61 245.176 1199.36 248.876L1206.61 258.629 700.108 700.07C684.493 713.76 664.389 721.293 643.492 721.293 622.802 721.293 602.716 713.777 586.915 700.088L80.9151 258.755 87.5336 249.115ZM67.2533 982.627C66.9793 980.812 66.9165 978.796 66.9165 976.742L66.9165 324.075 459.979 666.968 70.883 1006.22 67.2533 982.627ZM1168.6 1065.39C1153.39 1074.17 1135.87 1078.83 1117.97 1078.83L169.029 1078.83C151.114 1078.83 133.602 1074.17 118.399 1065.39L102.492 1056.17 504.519 705.821 548.579 744.145C575.007 767.09 608.711 779.739 643.497 779.739 678.412 779.739 712.171 767.09 738.582 744.145L782.624 705.804 1184.51 1056.19 1168.6 1065.39ZM1220.07 976.742C1220.07 978.761 1220.03 980.757 1219.77 982.534L1216.29 1006.34 827.028 667.151 1220.07 324.241 1220.07 976.742Z" fill="#000000" fill-rule="nonzero" fill-opacity="1" transform="matrix(1.00078 0 0 1 2046 448)"/></g></g></g><g><g><g><path d="M516.513 252.889C550.431 252.889 577.926 280.385 577.926 314.302L577.926 557.556C577.926 591.473 550.431 618.969 516.513 618.969L166.487 618.969C132.569 618.969 105.074 591.473 105.074 557.556L105.074 314.302C105.074 280.385 132.569 252.889 166.487 252.889Z" stroke="#000000" stroke-width="35.2972" stroke-linecap="round" stroke-linejoin="round" stroke-miterlimit="4" stroke-opacity="1" fill="#FFFFFF" fill-rule="nonzero" fill-opacity="1" transform="matrix(1.00146 0 0 1 2348 750)"/><path d="M189.986 252.889 189.986 215.714C190.712 131.945 259.208 64.6252 342.977 65.351 425.722 66.0677 492.624 132.97 493.341 215.714L493.341 252.895" stroke="#000000" stroke-width="35.2972" stroke-linecap="round" stroke-linejoin="round" stroke-miterlimit="4" stroke-opacity="1" fill="#FFFFFF" fill-rule="nonzero" fill-opacity="1" transform="matrix(1.00146 0 0 1 2348 750)"/><path d="M341.5 492.846 341.5 379.012" stroke="#000000" stroke-width="35.2972" stroke-linecap="round" stroke-linejoin="round" stroke-miterlimit="4" stroke-opacity="1" fill="none" fill-rule="nonzero" transform="matrix(1.00146 0 0 1 2348 750)"/></g></g></g></g></g></svg>